<svg width="387" height="79" viewBox="0 0 387 79" fill="none" xmlns="http://www.w3.org/2000/svg">
<path d="M46.6706 37.8267C49.235 37.8685 51.6569 38.57 53.9364 39.9313C56.2818 41.2832 58.2212 43.0965 59.7543 45.3711C61.3535 47.6364 62.3489 50.1552 62.7405 52.9277C63.2347 56.4263 62.791 59.7208 61.4096 62.811C60.0189 65.8352 57.7238 68.4149 54.5243 70.55C51.3815 72.6098 47.4997 73.966 42.8789 74.6186L17.1344 78.2548L7.38657 9.23983L32.1409 5.74348C36.8277 5.08151 40.9333 5.30957 44.4576 6.42766C47.9726 7.47975 50.7418 9.20947 52.765 11.6168C54.7882 14.0242 56.0329 16.8782 56.4991 20.1788C57.0772 24.2715 56.4351 27.8296 54.573 30.853C52.7676 33.8012 50.1335 36.1257 46.6706 37.8267ZM20.6067 37.7713L35.7564 35.6316C39.9811 35.0349 43.1088 33.5832 45.1395 31.2765C47.1702 28.9698 47.9385 26.0672 47.4443 22.5686C46.9502 19.07 45.4081 16.4937 42.8179 14.8397C40.2278 13.1856 36.7544 12.6663 32.3976 13.2817L17.446 15.3934L20.6067 37.7713ZM41.0378 67.3042C45.5266 66.6702 48.876 65.1199 51.0861 62.6532C53.2962 60.1866 54.1355 57.0719 53.6041 53.3092C53.0633 49.4806 51.3189 46.6635 48.3707 44.8581C45.4133 42.9866 41.7231 42.3633 37.3004 42.9879L21.6556 45.1976L25.0961 69.5559L41.0378 67.3042Z" fill="black"/>
<path d="M95.7163 75.2985C90.5834 75.2328 85.932 74.0066 81.7622 71.6197C77.6591 69.2337 74.4349 65.8922 72.0896 61.5952C69.8119 57.2324 68.7093 52.2179 68.7817 46.5517C68.8533 40.9521 70.1163 36.0345 72.5707 31.7989C75.0926 27.4975 78.4678 24.2404 82.6965 22.0276C86.926 19.7482 91.6405 18.6417 96.8401 18.7082C102.04 18.7747 106.724 20.0014 110.894 22.3882C115.065 24.7084 118.323 28.017 120.668 32.314C123.08 36.6119 124.25 41.5939 124.177 47.2601C124.105 52.9263 122.774 57.9097 120.186 62.2103C117.665 66.4451 114.256 69.7018 109.96 71.9804C105.664 74.2589 100.916 75.365 95.7163 75.2985ZM95.8186 67.2991C99.085 67.3409 102.161 66.6135 105.047 65.117C107.933 63.6204 110.263 61.35 112.035 58.3058C113.874 55.2624 114.822 51.5409 114.878 47.1412C114.934 42.7416 114.115 38.9975 112.421 35.9089C110.727 32.8203 108.49 30.5248 105.709 29.0225C102.929 27.4535 99.9055 26.6481 96.6391 26.6063C93.306 26.5637 90.2298 27.291 87.4104 28.7885C84.6585 30.22 82.4297 32.4584 80.724 35.5035C79.0182 38.5486 78.1372 42.271 78.081 46.6706C78.0238 51.1369 78.7756 54.9135 80.3363 58.0004C81.9636 61.0881 84.134 63.4161 86.8475 64.9842C89.5618 66.4857 92.5522 67.2574 95.8186 67.2991Z" fill="black"/>
<path d="M158.093 19.2288C164.749 18.8509 170.255 20.5748 174.613 24.4006C178.966 28.1599 181.358 33.8334 181.789 41.4212L183.62 73.6693L174.635 74.1794L172.877 43.2293C172.567 37.7714 170.967 33.6889 168.075 30.9818C165.18 28.2081 161.37 26.9554 156.644 27.2238C151.852 27.4959 148.109 29.2107 145.417 32.3684C142.792 35.5223 141.642 39.9613 141.967 45.6854L143.684 75.9367L134.599 76.4526L131.493 21.7407L140.578 21.2248L141.02 29.0123C142.658 26.1148 144.965 23.8136 147.94 22.1089C150.981 20.4004 154.366 19.4404 158.093 19.2288Z" fill="black"/>
<path d="M223.171 75.1233L202.411 50.2859L201.681 74.4749L192.585 74.2004L194.817 0.234055L203.913 0.508517L202.601 43.9887L224.424 20.3362L237.119 20.7192L210.507 47.2286L235.566 75.4973L223.171 75.1233Z" fill="black"/>
<path d="M293.855 43.4418C294.002 45.1688 294.059 47.004 294.024 48.9473L250.384 52.6781C251.176 58.03 253.363 62.0918 256.945 64.8634C260.588 67.5629 264.801 68.7083 269.584 68.2994C273.503 67.9644 276.681 66.7894 279.118 64.7745C281.616 62.6875 283.266 60.0708 284.068 56.9244L293.832 56.0897C292.819 61.4621 290.263 65.9963 286.163 69.6923C282.057 73.3219 276.749 75.4149 270.24 75.9714C265.059 76.4143 260.31 75.6494 255.993 73.6766C251.742 71.6982 248.272 68.6827 245.584 64.6303C242.89 60.5115 241.302 55.629 240.819 49.9829C240.337 44.3369 241.043 39.2917 242.938 34.8475C244.833 30.4032 247.71 26.8787 251.568 24.2739C255.488 21.597 260.105 20.0314 265.419 19.5771C270.6 19.1342 275.28 19.8716 279.458 21.7893C283.637 23.707 286.959 26.5678 289.425 30.3715C291.952 34.1032 293.429 38.4599 293.855 43.4418ZM284.327 42.3493C284.032 38.8953 283.015 36.0047 281.277 33.6776C279.534 31.284 277.28 29.5698 274.515 28.5349C271.811 27.4279 268.864 27.0106 265.676 27.2832C261.093 27.675 257.299 29.4714 254.294 32.6723C251.355 35.8675 249.875 40.0756 249.853 45.2964L284.327 42.3493Z" fill="black"/>
<path d="M314.43 28.9645C316.196 25.9214 318.59 23.6131 321.612 22.0395C324.7 20.4695 328.375 19.7989 332.636 20.0276L332.132 29.4141L329.735 29.2854C319.55 28.7386 314.16 33.9906 313.567 45.0414L311.97 74.7985L302.883 74.3107L305.82 19.5895L314.907 20.0773L314.43 28.9645Z" fill="black"/>
<path d="M357.314 75.2522C353.12 75.0271 349.396 74.1262 346.143 72.5495C342.893 70.9063 340.37 68.768 338.576 66.1346C336.785 63.4347 335.878 60.4152 335.857 57.0759L345.244 57.5798C345.364 60.3235 346.509 62.6215 348.679 64.4739C350.916 66.3298 353.899 67.3578 357.627 67.558C361.089 67.7438 363.859 67.1247 365.938 65.7008C368.018 64.2769 369.12 62.4 369.245 60.07C369.374 57.6734 368.403 55.8521 366.334 54.6061C364.268 53.2934 361.035 51.9515 356.636 50.5804C352.632 49.2973 349.361 48.0534 346.821 46.8489C344.353 45.5814 342.243 43.8325 340.494 41.6022C338.814 39.3088 338.069 36.398 338.259 32.8698C338.409 30.0738 339.378 27.5555 341.168 25.3149C342.957 23.0742 345.419 21.3704 348.552 20.2034C351.69 18.9698 355.222 18.4584 359.15 18.6693C365.208 18.9945 370.018 20.7883 373.582 24.0507C377.146 27.3131 378.918 31.6143 378.898 36.9542L369.811 36.4664C369.765 33.5931 368.723 31.2339 366.686 29.3887C364.715 27.5471 361.966 26.5315 358.437 26.3421C355.175 26.167 352.542 26.7266 350.536 28.021C348.53 29.3153 347.467 31.0942 347.345 33.3576C347.249 35.155 347.734 36.6833 348.802 37.9423C349.939 39.1383 351.354 40.1489 353.045 40.9741C354.807 41.7363 357.229 42.6341 360.311 43.6675C364.182 44.9435 367.32 46.1802 369.726 47.3775C372.136 48.5083 374.15 50.152 375.77 52.3086C377.457 54.4688 378.244 57.215 378.132 60.5471C377.971 63.5428 376.994 66.1942 375.202 68.5014C373.409 70.8086 370.943 72.579 367.806 73.8126C364.739 74.9832 361.242 75.4631 357.314 75.2522Z" fill="black"/>
</svg>
