<svg width="462" height="146" viewBox="0 0 462 146" fill="none" xmlns="http://www.w3.org/2000/svg">
<path d="M39.9396 44.88H25.6596V109H9.55961V44.88H0.459609V31.86H9.55961V26.4C9.55961 17.5333 11.8929 11.0933 16.5596 7.07999C21.3196 2.97333 28.7396 0.919998 38.8196 0.919998V14.22C33.9663 14.22 30.5596 15.1533 28.5996 17.02C26.6396 18.7933 25.6596 21.92 25.6596 26.4V31.86H39.9396V44.88ZM70.044 43.06C72.3773 39.14 75.4573 36.1067 79.284 33.96C83.204 31.72 87.824 30.6 93.144 30.6V47.12H89.084C82.8307 47.12 78.0707 48.7067 74.804 51.88C71.6307 55.0533 70.044 60.56 70.044 68.4V109H54.084V31.86H70.044V43.06ZM115.934 21.64C113.041 21.64 110.614 20.66 108.654 18.7C106.694 16.74 105.714 14.3133 105.714 11.42C105.714 8.52666 106.694 6.1 108.654 4.14C110.614 2.18 113.041 1.19999 115.934 1.19999C118.734 1.19999 121.114 2.18 123.074 4.14C125.034 6.1 126.014 8.52666 126.014 11.42C126.014 14.3133 125.034 16.74 123.074 18.7C121.114 20.66 118.734 21.64 115.934 21.64ZM123.774 31.86V109H107.814V31.86H123.774ZM172.729 110.26C166.662 110.26 161.202 109.187 156.349 107.04C151.589 104.8 147.809 101.813 145.009 98.08C142.209 94.2533 140.715 90.0067 140.529 85.34H157.049C157.329 88.6067 158.869 91.36 161.669 93.6C164.562 95.7467 168.155 96.82 172.449 96.82C176.929 96.82 180.382 95.98 182.809 94.3C185.329 92.5267 186.589 90.2867 186.589 87.58C186.589 84.6867 185.189 82.54 182.389 81.14C179.682 79.74 175.342 78.2 169.369 76.52C163.582 74.9333 158.869 73.3933 155.229 71.9C151.589 70.4067 148.415 68.12 145.709 65.04C143.095 61.96 141.789 57.9 141.789 52.86C141.789 48.7533 143.002 45.02 145.429 41.66C147.855 38.2067 151.309 35.5 155.789 33.54C160.362 31.58 165.589 30.6 171.469 30.6C180.242 30.6 187.289 32.84 192.609 37.32C198.022 41.7067 200.915 47.7267 201.289 55.38H185.329C185.049 51.9267 183.649 49.1733 181.129 47.12C178.609 45.0667 175.202 44.04 170.909 44.04C166.709 44.04 163.489 44.8333 161.249 46.42C159.009 48.0067 157.889 50.1067 157.889 52.72C157.889 54.7733 158.635 56.5 160.129 57.9C161.622 59.3 163.442 60.42 165.589 61.26C167.735 62.0067 170.909 62.9867 175.109 64.2C180.709 65.6933 185.282 67.2333 188.829 68.82C192.469 70.3133 195.595 72.5533 198.209 75.54C200.822 78.5267 202.175 82.4933 202.269 87.44C202.269 91.8267 201.055 95.7467 198.629 99.2C196.202 102.653 192.749 105.36 188.269 107.32C183.882 109.28 178.702 110.26 172.729 110.26ZM250.034 70.5L285.594 109H264.034L235.474 75.82V109H219.514V5.4H235.474V65.6L263.474 31.86H285.594L250.034 70.5ZM291.713 70.08C291.713 62.3333 293.3 55.4733 296.473 49.5C299.74 43.5267 304.127 38.9067 309.633 35.64C315.233 32.28 321.393 30.6 328.113 30.6C334.18 30.6 339.453 31.8133 343.933 34.24C348.507 36.5733 352.147 39.5133 354.853 43.06V31.86H370.953V109H354.853V97.52C352.147 101.16 348.46 104.193 343.793 106.62C339.127 109.047 333.807 110.26 327.833 110.26C321.207 110.26 315.14 108.58 309.633 105.22C304.127 101.767 299.74 97.0067 296.473 90.94C293.3 84.78 291.713 77.8267 291.713 70.08ZM354.853 70.36C354.853 65.04 353.733 60.42 351.493 56.5C349.347 52.58 346.5 49.5933 342.953 47.54C339.407 45.4867 335.58 44.46 331.473 44.46C327.367 44.46 323.54 45.4867 319.993 47.54C316.447 49.5 313.553 52.44 311.313 56.36C309.167 60.1867 308.093 64.76 308.093 70.08C308.093 75.4 309.167 80.0667 311.313 84.08C313.553 88.0933 316.447 91.1733 319.993 93.32C323.633 95.3733 327.46 96.4 331.473 96.4C335.58 96.4 339.407 95.3733 342.953 93.32C346.5 91.2667 349.347 88.28 351.493 84.36C353.733 80.3467 354.853 75.68 354.853 70.36ZM461.356 31.86L414.036 145.26H397.516L413.196 107.74L382.816 31.86H400.596L422.296 90.66L444.836 31.86H461.356Z" fill="#040404"/>
</svg>
