<svg width="100" height="70" viewBox="0 0 379 140" fill="none" xmlns="http://www.w3.org/2000/svg">
<path d="M4.6 127.16L8.28 126.56V97.44L4.6 96.88V96H17.16C21.1067 96 24.04 96.84 25.96 98.52C27.88 100.2 28.84 102.627 28.84 105.8C28.84 108.973 27.88 111.4 25.96 113.08C24.04 114.76 21.1067 115.6 17.16 115.6H12.68V126.56L16.36 127.16V128H4.6V127.16ZM16.6 114.64C21.5333 114.64 24 111.96 24 106.6V105C24 99.6667 21.5333 97 16.6 97H12.68V114.64H16.6ZM31.4238 127.2L34.2238 126.8V108.48L31.4238 108.08V107.28H38.2238V110.36C39.9038 108.067 41.7971 106.92 43.9038 106.92C44.9171 106.92 45.8104 107.187 46.5838 107.72C47.3571 108.227 47.7438 108.96 47.7438 109.92C47.7438 110.613 47.5171 111.2 47.0638 111.68C46.6104 112.133 46.0104 112.36 45.2638 112.36C44.4104 112.36 43.7171 112.027 43.1838 111.36C43.4771 110.987 43.6238 110.587 43.6238 110.16C43.6238 109.707 43.4638 109.347 43.1438 109.08C42.8504 108.787 42.4504 108.64 41.9438 108.64C41.3838 108.64 40.8104 108.907 40.2238 109.44C39.6371 109.947 38.9704 110.747 38.2238 111.84V126.8L41.4238 127.2V128H31.4238V127.2ZM59.9284 128.4C57.9551 128.4 56.1684 127.96 54.5684 127.08C52.9684 126.173 51.7018 124.907 50.7684 123.28C49.8351 121.653 49.3684 119.773 49.3684 117.64C49.3684 115.507 49.8218 113.64 50.7284 112.04C51.6618 110.413 52.9018 109.16 54.4484 108.28C56.0218 107.373 57.7684 106.92 59.6884 106.92C61.3684 106.92 62.8751 107.293 64.2084 108.04C65.5418 108.787 66.5818 109.827 67.3284 111.16C68.0751 112.467 68.4618 113.973 68.4884 115.68H53.7684V119.64C53.7684 121.987 54.2884 123.893 55.3284 125.36C56.3951 126.8 57.9284 127.52 59.9284 127.52C61.7684 127.52 63.3951 127 64.8084 125.96C66.2218 124.92 67.0884 123.573 67.4084 121.92H68.3284C67.9551 123.893 67.0084 125.467 65.4884 126.64C63.9684 127.813 62.1151 128.4 59.9284 128.4ZM64.0884 114.68C64.0884 112.36 63.7284 110.64 63.0084 109.52C62.2884 108.373 61.1684 107.8 59.6484 107.8C57.8618 107.8 56.4751 108.427 55.4884 109.68C54.5018 110.933 53.9418 112.6 53.8084 114.68H64.0884ZM71.1503 127.2L73.9503 126.8V108.48L71.1503 108.08V107.28H77.9503V110.96C78.9103 109.707 79.9903 108.72 81.1903 108C82.417 107.28 83.737 106.92 85.1503 106.92C86.777 106.92 88.097 107.28 89.1103 108C90.1503 108.693 90.8036 109.747 91.0703 111.16C92.0303 109.853 93.1236 108.827 94.3503 108.08C95.577 107.307 96.9236 106.92 98.3903 106.92C100.284 106.92 101.75 107.4 102.79 108.36C103.857 109.293 104.39 110.72 104.39 112.64V126.8L107.19 127.2V128H97.9903V127.2L100.39 126.8V112.72C100.39 111.307 100.137 110.227 99.6303 109.48C99.1236 108.733 98.297 108.36 97.1503 108.36C96.057 108.36 94.9903 108.733 93.9503 109.48C92.937 110.227 92.017 111.187 91.1903 112.36V126.8L93.5903 127.2V128H84.7503V127.2L87.1503 126.8V112.72C87.1503 111.307 86.897 110.227 86.3903 109.48C85.8836 108.733 85.057 108.36 83.9103 108.36C82.817 108.36 81.7503 108.733 80.7103 109.48C79.697 110.227 78.777 111.187 77.9503 112.36V126.8L80.3503 127.2V128H71.1503V127.2ZM113.282 102.64C112.535 102.64 111.895 102.387 111.362 101.88C110.829 101.347 110.562 100.707 110.562 99.96C110.562 99.2133 110.815 98.5867 111.322 98.08C111.855 97.5733 112.509 97.32 113.282 97.32C114.002 97.32 114.615 97.5733 115.122 98.08C115.629 98.5867 115.882 99.2133 115.882 99.96C115.882 100.707 115.629 101.347 115.122 101.88C114.615 102.387 114.002 102.64 113.282 102.64ZM109.042 128V127.2L111.842 126.8V108.52L109.042 108.12V107.32H115.842V126.8L118.642 127.2V128H109.042ZM129.164 128.4C127.244 128.4 125.724 127.92 124.604 126.96C123.511 126 122.964 124.573 122.964 122.68V108.48L120.164 108.08V107.28H126.964V122.6C126.964 123.96 127.244 125.027 127.804 125.8C128.364 126.573 129.231 126.96 130.404 126.96C131.631 126.96 132.804 126.56 133.924 125.76C135.071 124.933 136.084 123.92 136.964 122.72V108.48L134.164 108.08V107.28H140.964V126.8L143.764 127.2V128H136.964V124.16C136.004 125.493 134.844 126.533 133.484 127.28C132.151 128.027 130.711 128.4 129.164 128.4ZM145.838 127.2L148.638 126.8V108.48L145.838 108.08V107.28H152.638V110.96C153.598 109.707 154.678 108.72 155.878 108C157.104 107.28 158.424 106.92 159.838 106.92C161.464 106.92 162.784 107.28 163.798 108C164.838 108.693 165.491 109.747 165.758 111.16C166.718 109.853 167.811 108.827 169.038 108.08C170.264 107.307 171.611 106.92 173.078 106.92C174.971 106.92 176.438 107.4 177.478 108.36C178.544 109.293 179.078 110.72 179.078 112.64V126.8L181.878 127.2V128H172.678V127.2L175.078 126.8V112.72C175.078 111.307 174.824 110.227 174.318 109.48C173.811 108.733 172.984 108.36 171.838 108.36C170.744 108.36 169.678 108.733 168.638 109.48C167.624 110.227 166.704 111.187 165.878 112.36V126.8L168.278 127.2V128H159.438V127.2L161.838 126.8V112.72C161.838 111.307 161.584 110.227 161.078 109.48C160.571 108.733 159.744 108.36 158.598 108.36C157.504 108.36 156.438 108.733 155.398 109.48C154.384 110.227 153.464 111.187 152.638 112.36V126.8L155.038 127.2V128H145.838V127.2ZM191.06 128V127.16L194.98 125.56L206.54 95.2H207.18L218.1 126.56L221.78 127.16V128H210.02V127.16L213.3 126.64L209.9 117.16H199.26L196.02 125.56L199.62 127.16V128H191.06ZM199.58 116.32H209.62L204.82 102.24L199.58 116.32ZM221.77 138.52L224.57 138.12V108.52L221.77 108.12V107.32H228.57V111.52C229.236 110.08 230.13 108.96 231.25 108.16C232.396 107.333 233.756 106.92 235.33 106.92C237.223 106.92 238.89 107.373 240.33 108.28C241.77 109.16 242.89 110.413 243.69 112.04C244.49 113.64 244.89 115.52 244.89 117.68C244.89 119.84 244.49 121.733 243.69 123.36C242.89 124.96 241.77 126.2 240.33 127.08C238.89 127.96 237.223 128.4 235.33 128.4C233.756 128.4 232.396 128 231.25 127.2C230.13 126.373 229.236 125.253 228.57 123.84V138.12L232.33 138.52V139.32H221.77V138.52ZM234.93 127.4C238.636 127.4 240.49 124.827 240.49 119.68V115.68C240.49 110.507 238.636 107.92 234.93 107.92C233.756 107.92 232.69 108.267 231.73 108.96C230.77 109.627 230.01 110.533 229.45 111.68C228.89 112.827 228.596 114.067 228.57 115.4V119.68C228.57 121.04 228.836 122.32 229.37 123.52C229.93 124.693 230.69 125.64 231.65 126.36C232.636 127.053 233.73 127.4 234.93 127.4ZM247.434 138.52L250.234 138.12V108.52L247.434 108.12V107.32H254.234V111.52C254.9 110.08 255.794 108.96 256.914 108.16C258.06 107.333 259.42 106.92 260.994 106.92C262.887 106.92 264.554 107.373 265.994 108.28C267.434 109.16 268.554 110.413 269.354 112.04C270.154 113.64 270.554 115.52 270.554 117.68C270.554 119.84 270.154 121.733 269.354 123.36C268.554 124.96 267.434 126.2 265.994 127.08C264.554 127.96 262.887 128.4 260.994 128.4C259.42 128.4 258.06 128 256.914 127.2C255.794 126.373 254.9 125.253 254.234 123.84V138.12L257.994 138.52V139.32H247.434V138.52ZM260.594 127.4C264.3 127.4 266.154 124.827 266.154 119.68V115.68C266.154 110.507 264.3 107.92 260.594 107.92C259.42 107.92 258.354 108.267 257.394 108.96C256.434 109.627 255.674 110.533 255.114 111.68C254.554 112.827 254.26 114.067 254.234 115.4V119.68C254.234 121.04 254.5 122.32 255.034 123.52C255.594 124.693 256.354 125.64 257.314 126.36C258.3 127.053 259.394 127.4 260.594 127.4ZM279.938 128.4C278.231 128.4 276.831 127.96 275.738 127.08C274.644 126.173 274.098 124.84 274.098 123.08C274.098 120.573 275.151 118.8 277.258 117.76C279.364 116.693 281.804 116.16 284.578 116.16H287.258V113.08C287.258 111.693 287.098 110.627 286.778 109.88C286.484 109.107 286.018 108.573 285.378 108.28C284.738 107.96 283.871 107.8 282.778 107.8C281.524 107.8 280.591 108.053 279.978 108.56C279.364 109.04 279.058 109.693 279.058 110.52C279.058 111.293 279.431 111.8 280.178 112.04C280.178 112.707 279.924 113.293 279.418 113.8C278.911 114.307 278.311 114.56 277.618 114.56C276.871 114.56 276.271 114.36 275.818 113.96C275.364 113.533 275.138 112.893 275.138 112.04C275.138 110.493 275.911 109.253 277.458 108.32C279.004 107.387 280.938 106.92 283.258 106.92C288.591 106.92 291.258 109.24 291.258 113.88V125.32C291.258 125.907 291.378 126.36 291.618 126.68C291.884 126.973 292.258 127.12 292.738 127.12C293.191 127.12 293.551 126.973 293.818 126.68C294.084 126.36 294.218 125.933 294.218 125.4H295.058C295.058 126.333 294.751 127.067 294.138 127.6C293.551 128.133 292.724 128.4 291.658 128.4C290.431 128.4 289.391 128.053 288.538 127.36C287.711 126.64 287.284 125.533 287.258 124.04C286.618 125.4 285.631 126.467 284.298 127.24C282.991 128.013 281.538 128.4 279.938 128.4ZM282.138 126.64C282.858 126.64 283.591 126.427 284.338 126C285.111 125.573 285.764 124.96 286.298 124.16C286.831 123.333 287.151 122.347 287.258 121.2V117.04H284.578C282.391 117.04 280.751 117.533 279.658 118.52C278.591 119.48 278.058 120.84 278.058 122.6C278.058 124.067 278.404 125.107 279.098 125.72C279.791 126.333 280.804 126.64 282.138 126.64ZM296.033 127.2L298.833 126.8V108.48L296.033 108.08V107.28H302.833V110.36C304.513 108.067 306.406 106.92 308.513 106.92C309.526 106.92 310.42 107.187 311.193 107.72C311.966 108.227 312.353 108.96 312.353 109.92C312.353 110.613 312.126 111.2 311.673 111.68C311.22 112.133 310.62 112.36 309.873 112.36C309.02 112.36 308.326 112.027 307.793 111.36C308.086 110.987 308.233 110.587 308.233 110.16C308.233 109.707 308.073 109.347 307.753 109.08C307.46 108.787 307.06 108.64 306.553 108.64C305.993 108.64 305.42 108.907 304.833 109.44C304.246 109.947 303.58 110.747 302.833 111.84V126.8L306.033 127.2V128H296.033V127.2ZM324.538 128.4C322.564 128.4 320.778 127.96 319.178 127.08C317.578 126.173 316.311 124.907 315.378 123.28C314.444 121.653 313.978 119.773 313.978 117.64C313.978 115.507 314.431 113.64 315.338 112.04C316.271 110.413 317.511 109.16 319.058 108.28C320.631 107.373 322.378 106.92 324.298 106.92C325.978 106.92 327.484 107.293 328.818 108.04C330.151 108.787 331.191 109.827 331.938 111.16C332.684 112.467 333.071 113.973 333.098 115.68H318.378V119.64C318.378 121.987 318.898 123.893 319.938 125.36C321.004 126.8 322.538 127.52 324.538 127.52C326.378 127.52 328.004 127 329.418 125.96C330.831 124.92 331.698 123.573 332.018 121.92H332.938C332.564 123.893 331.618 125.467 330.098 126.64C328.578 127.813 326.724 128.4 324.538 128.4ZM328.698 114.68C328.698 112.36 328.338 110.64 327.618 109.52C326.898 108.373 325.778 107.8 324.258 107.8C322.471 107.8 321.084 108.427 320.098 109.68C319.111 110.933 318.551 112.6 318.418 114.68H328.698ZM342.36 128.4C340.653 128.4 339.253 127.96 338.16 127.08C337.066 126.173 336.52 124.84 336.52 123.08C336.52 120.573 337.573 118.8 339.68 117.76C341.786 116.693 344.226 116.16 347 116.16H349.68V113.08C349.68 111.693 349.52 110.627 349.2 109.88C348.906 109.107 348.44 108.573 347.8 108.28C347.16 107.96 346.293 107.8 345.2 107.8C343.946 107.8 343.013 108.053 342.4 108.56C341.786 109.04 341.48 109.693 341.48 110.52C341.48 111.293 341.853 111.8 342.6 112.04C342.6 112.707 342.346 113.293 341.84 113.8C341.333 114.307 340.733 114.56 340.04 114.56C339.293 114.56 338.693 114.36 338.24 113.96C337.786 113.533 337.56 112.893 337.56 112.04C337.56 110.493 338.333 109.253 339.88 108.32C341.426 107.387 343.36 106.92 345.68 106.92C351.013 106.92 353.68 109.24 353.68 113.88V125.32C353.68 125.907 353.8 126.36 354.04 126.68C354.306 126.973 354.68 127.12 355.16 127.12C355.613 127.12 355.973 126.973 356.24 126.68C356.506 126.36 356.64 125.933 356.64 125.4H357.48C357.48 126.333 357.173 127.067 356.56 127.6C355.973 128.133 355.146 128.4 354.08 128.4C352.853 128.4 351.813 128.053 350.96 127.36C350.133 126.64 349.706 125.533 349.68 124.04C349.04 125.4 348.053 126.467 346.72 127.24C345.413 128.013 343.96 128.4 342.36 128.4ZM344.56 126.64C345.28 126.64 346.013 126.427 346.76 126C347.533 125.573 348.186 124.96 348.72 124.16C349.253 123.333 349.573 122.347 349.68 121.2V117.04H347C344.813 117.04 343.173 117.533 342.08 118.52C341.013 119.48 340.48 120.84 340.48 122.6C340.48 124.067 340.826 125.107 341.52 125.72C342.213 126.333 343.226 126.64 344.56 126.64ZM358.175 128V127.2L361.175 126.8V97.2L358.175 96.8V96H365.175V126.8L367.975 127.2V128H358.175Z" fill="#000"/>
<path d="M4 80V77.9L13.2 76.4V3.59999L4 2.19999V-1.19209e-06H64.2V22.9H61.5L53.8 2.5H24.2V40H41.1L47 25.5H49.7V57.1H47L41.1 42.4H24.2V76.4L33.4 77.9V80H4ZM81.407 81C77.1404 81 73.6404 79.9 70.907 77.7C68.1737 75.4333 66.807 72.1 66.807 67.7C66.807 61.4333 69.4404 57 74.707 54.4C79.9737 51.7333 86.0737 50.4 93.007 50.4H99.707V42.7C99.707 39.2333 99.307 36.5667 98.507 34.7C97.7737 32.7667 96.607 31.4333 95.007 30.7C93.407 29.9 91.2404 29.5 88.507 29.5C85.3737 29.5 83.0404 30.1333 81.507 31.4C79.9737 32.6 79.207 34.2333 79.207 36.3C79.207 38.2333 80.1404 39.5 82.007 40.1C82.007 41.7667 81.3737 43.2333 80.107 44.5C78.8404 45.7667 77.3404 46.4 75.607 46.4C73.7404 46.4 72.2404 45.9 71.107 44.9C69.9737 43.8333 69.407 42.2333 69.407 40.1C69.407 36.2333 71.3404 33.1333 75.207 30.8C79.0737 28.4667 83.907 27.3 89.707 27.3C103.04 27.3 109.707 33.1 109.707 44.7V73.3C109.707 74.7667 110.007 75.9 110.607 76.7C111.274 77.4333 112.207 77.8 113.407 77.8C114.54 77.8 115.44 77.4333 116.107 76.7C116.774 75.9 117.107 74.8333 117.107 73.5H119.207C119.207 75.8333 118.44 77.6667 116.907 79C115.44 80.3333 113.374 81 110.707 81C107.64 81 105.04 80.1333 102.907 78.4C100.84 76.6 99.7737 73.8333 99.707 70.1C98.107 73.5 95.6404 76.1667 92.307 78.1C89.0404 80.0333 85.407 81 81.407 81ZM86.907 76.6C88.707 76.6 90.5404 76.0667 92.407 75C94.3404 73.9333 95.9737 72.4 97.307 70.4C98.6404 68.3333 99.4404 65.8667 99.707 63V52.6H93.007C87.5404 52.6 83.4404 53.8333 80.707 56.3C78.0404 58.7 76.707 62.1 76.707 66.5C76.707 70.1667 77.5737 72.7667 79.307 74.3C81.0404 75.8333 83.5737 76.6 86.907 76.6ZM143.145 81C138.345 81 134.545 79.8 131.745 77.4C129.012 75 127.645 71.4333 127.645 66.7V31.2L120.645 30.2V28.2H137.645V66.5C137.645 69.9 138.345 72.5667 139.745 74.5C141.145 76.4333 143.312 77.4 146.245 77.4C149.312 77.4 152.245 76.4 155.045 74.4C157.912 72.3333 160.445 69.8 162.645 66.8V31.2L155.645 30.2V28.2H172.645V77L179.645 78V80H162.645V70.4C160.245 73.7333 157.345 76.3333 153.945 78.2C150.612 80.0667 147.012 81 143.145 81ZM233.729 77.1L240.129 78V80H215.729V78L221.729 77L207.929 58.1L193.229 75.7L201.329 78V80H183.429V78L190.129 75.5L206.329 55.8L188.329 31.1L182.229 30.2V28.2H206.629V30.2L200.329 31.3L212.829 48.4L226.229 32.6L218.329 30.3V28.3H236.729V30.3L229.429 32.9L214.429 50.7L233.729 77.1ZM253.244 16.6C251.377 16.6 249.777 15.9667 248.444 14.7C247.11 13.3667 246.444 11.7667 246.444 9.9C246.444 8.03333 247.077 6.46666 248.344 5.2C249.677 3.93333 251.31 3.3 253.244 3.3C255.044 3.3 256.577 3.93333 257.844 5.2C259.11 6.46666 259.744 8.03333 259.744 9.9C259.744 11.7667 259.11 13.3667 257.844 14.7C256.577 15.9667 255.044 16.6 253.244 16.6ZM242.644 80V78L249.644 77V31.3L242.644 30.3V28.3H259.644V77L266.644 78V80H242.644ZM298.95 81C294.15 81 289.783 79.9 285.85 77.7C281.917 75.4333 278.783 72.2667 276.45 68.2C274.183 64.0667 273.05 59.3667 273.05 54.1C273.05 48.5667 274.25 43.7667 276.65 39.7C279.117 35.6333 282.317 32.5667 286.25 30.5C290.183 28.3667 294.417 27.3 298.95 27.3C302.75 27.3 306.217 27.9667 309.35 29.3C312.483 30.5667 314.95 32.3667 316.75 34.7C318.617 37.0333 319.55 39.6667 319.55 42.6C319.55 44.8 318.983 46.5 317.85 47.7C316.717 48.8333 315.217 49.4 313.35 49.4C311.55 49.4 310.05 48.8 308.85 47.6C307.65 46.4 307.05 44.9 307.05 43.1C308.05 42.4333 308.75 41.7 309.15 40.9C309.55 40.1 309.75 39.1 309.75 37.9C309.75 35.4333 308.75 33.4333 306.75 31.9C304.817 30.3 302.217 29.5 298.95 29.5C294.15 29.5 290.45 31.2333 287.85 34.7C285.317 38.1 284.05 42.9 284.05 49.1V59.1C284.05 65.0333 285.283 69.8 287.75 73.4C290.283 77 294.017 78.8 298.95 78.8C303.483 78.8 307.417 77.5333 310.75 75C314.15 72.4 316.25 69 317.05 64.8H319.35C318.417 69.7333 316.083 73.6667 312.35 76.6C308.683 79.5333 304.217 81 298.95 81ZM341.173 81C336.906 81 333.406 79.9 330.673 77.7C327.939 75.4333 326.573 72.1 326.573 67.7C326.573 61.4333 329.206 57 334.473 54.4C339.739 51.7333 345.839 50.4 352.773 50.4H359.473V42.7C359.473 39.2333 359.073 36.5667 358.273 34.7C357.539 32.7667 356.373 31.4333 354.773 30.7C353.173 29.9 351.006 29.5 348.273 29.5C345.139 29.5 342.806 30.1333 341.273 31.4C339.739 32.6 338.973 34.2333 338.973 36.3C338.973 38.2333 339.906 39.5 341.773 40.1C341.773 41.7667 341.139 43.2333 339.873 44.5C338.606 45.7667 337.106 46.4 335.373 46.4C333.506 46.4 332.006 45.9 330.873 44.9C329.739 43.8333 329.173 42.2333 329.173 40.1C329.173 36.2333 331.106 33.1333 334.973 30.8C338.839 28.4667 343.673 27.3 349.473 27.3C362.806 27.3 369.473 33.1 369.473 44.7V73.3C369.473 74.7667 369.773 75.9 370.373 76.7C371.039 77.4333 371.973 77.8 373.173 77.8C374.306 77.8 375.206 77.4333 375.873 76.7C376.539 75.9 376.873 74.8333 376.873 73.5H378.973C378.973 75.8333 378.206 77.6667 376.673 79C375.206 80.3333 373.139 81 370.473 81C367.406 81 364.806 80.1333 362.673 78.4C360.606 76.6 359.539 73.8333 359.473 70.1C357.873 73.5 355.406 76.1667 352.073 78.1C348.806 80.0333 345.173 81 341.173 81ZM346.673 76.6C348.473 76.6 350.306 76.0667 352.173 75C354.106 73.9333 355.739 72.4 357.073 70.4C358.406 68.3333 359.206 65.8667 359.473 63V52.6H352.773C347.306 52.6 343.206 53.8333 340.473 56.3C337.806 58.7 336.473 62.1 336.473 66.5C336.473 70.1667 337.339 72.7667 339.073 74.3C340.806 75.8333 343.339 76.6 346.673 76.6Z" fill="#000"/>
</svg>
